<mxfile host="app.diagrams.net" modified="2024-01-22T00:39:23.250Z" agent="Mozilla/5.0 (Windows NT 10.0; Win64; x64) AppleWebKit/537.36 (KHTML, like Gecko) Chrome/120.0.0.0 Safari/537.36" etag="58hHYVqJ5vmWkMaM-O-9" version="22.1.21" type="github">
  <diagram name="Página-1" id="79N3pCwPjmwRQq8qD3H3">
    <mxGraphModel dx="2261" dy="800" grid="1" gridSize="10" guides="1" tooltips="1" connect="1" arrows="1" fold="1" page="1" pageScale="1" pageWidth="827" pageHeight="1169" math="0" shadow="0">
      <root>
        <mxCell id="0" />
        <mxCell id="1" parent="0" />
        <mxCell id="O255DUQ4rKs0uwlkFZ7V-3" value="" style="ellipse;whiteSpace=wrap;html=1;" vertex="1" parent="1">
          <mxGeometry x="60" y="310" width="420" height="380" as="geometry" />
        </mxCell>
        <mxCell id="O255DUQ4rKs0uwlkFZ7V-8" style="edgeStyle=orthogonalEdgeStyle;rounded=0;orthogonalLoop=1;jettySize=auto;html=1;" edge="1" parent="1" source="O255DUQ4rKs0uwlkFZ7V-1" target="O255DUQ4rKs0uwlkFZ7V-2">
          <mxGeometry relative="1" as="geometry">
            <Array as="points">
              <mxPoint x="610" y="635" />
            </Array>
          </mxGeometry>
        </mxCell>
        <mxCell id="O255DUQ4rKs0uwlkFZ7V-1" value="Extração de noticias" style="rounded=0;whiteSpace=wrap;html=1;" vertex="1" parent="1">
          <mxGeometry x="205" y="600" width="120" height="70" as="geometry" />
        </mxCell>
        <mxCell id="O255DUQ4rKs0uwlkFZ7V-14" style="edgeStyle=orthogonalEdgeStyle;rounded=0;orthogonalLoop=1;jettySize=auto;html=1;entryX=1;entryY=0.75;entryDx=0;entryDy=0;" edge="1" parent="1" source="O255DUQ4rKs0uwlkFZ7V-2" target="O255DUQ4rKs0uwlkFZ7V-10">
          <mxGeometry relative="1" as="geometry" />
        </mxCell>
        <mxCell id="O255DUQ4rKs0uwlkFZ7V-16" value="Envia para pagina todas noticias" style="edgeLabel;html=1;align=center;verticalAlign=middle;resizable=0;points=[];" vertex="1" connectable="0" parent="O255DUQ4rKs0uwlkFZ7V-14">
          <mxGeometry x="0.181" y="3" relative="1" as="geometry">
            <mxPoint as="offset" />
          </mxGeometry>
        </mxCell>
        <mxCell id="O255DUQ4rKs0uwlkFZ7V-2" value="Banco de dados&lt;br&gt;" style="shape=cylinder3;whiteSpace=wrap;html=1;boundedLbl=1;backgroundOutline=1;size=15;" vertex="1" parent="1">
          <mxGeometry x="570" y="540" width="70" height="80" as="geometry" />
        </mxCell>
        <mxCell id="O255DUQ4rKs0uwlkFZ7V-5" value="APP (DJANGO)" style="text;html=1;strokeColor=none;fillColor=none;align=center;verticalAlign=middle;whiteSpace=wrap;rounded=0;" vertex="1" parent="1">
          <mxGeometry x="100" y="440" width="60" height="30" as="geometry" />
        </mxCell>
        <mxCell id="O255DUQ4rKs0uwlkFZ7V-7" style="edgeStyle=orthogonalEdgeStyle;rounded=0;orthogonalLoop=1;jettySize=auto;html=1;entryX=0.5;entryY=1;entryDx=0;entryDy=0;" edge="1" parent="1" source="O255DUQ4rKs0uwlkFZ7V-6" target="O255DUQ4rKs0uwlkFZ7V-1">
          <mxGeometry relative="1" as="geometry" />
        </mxCell>
        <mxCell id="O255DUQ4rKs0uwlkFZ7V-6" value="Celery pain gaming&lt;br&gt;Todo dia 23h" style="shape=process;whiteSpace=wrap;html=1;backgroundOutline=1;" vertex="1" parent="1">
          <mxGeometry x="195" y="740" width="140" height="60" as="geometry" />
        </mxCell>
        <mxCell id="O255DUQ4rKs0uwlkFZ7V-10" value="FRONT-END&lt;br&gt;Pagina noticias" style="rounded=0;whiteSpace=wrap;html=1;" vertex="1" parent="1">
          <mxGeometry x="210" y="490" width="120" height="60" as="geometry" />
        </mxCell>
        <mxCell id="O255DUQ4rKs0uwlkFZ7V-12" value="Acessa o portal dos tradicionais" style="edgeStyle=orthogonalEdgeStyle;rounded=0;orthogonalLoop=1;jettySize=auto;html=1;" edge="1" parent="1" source="O255DUQ4rKs0uwlkFZ7V-11" target="O255DUQ4rKs0uwlkFZ7V-10">
          <mxGeometry relative="1" as="geometry" />
        </mxCell>
        <mxCell id="O255DUQ4rKs0uwlkFZ7V-11" value="Usuario" style="shape=umlActor;verticalLabelPosition=bottom;verticalAlign=top;html=1;outlineConnect=0;" vertex="1" parent="1">
          <mxGeometry x="-160" y="490" width="30" height="60" as="geometry" />
        </mxCell>
        <mxCell id="O255DUQ4rKs0uwlkFZ7V-13" style="edgeStyle=orthogonalEdgeStyle;rounded=0;orthogonalLoop=1;jettySize=auto;html=1;entryX=0.5;entryY=0;entryDx=0;entryDy=0;entryPerimeter=0;" edge="1" parent="1" source="O255DUQ4rKs0uwlkFZ7V-10" target="O255DUQ4rKs0uwlkFZ7V-2">
          <mxGeometry relative="1" as="geometry">
            <Array as="points">
              <mxPoint x="270" y="460" />
              <mxPoint x="383" y="460" />
              <mxPoint x="383" y="465" />
              <mxPoint x="605" y="465" />
            </Array>
          </mxGeometry>
        </mxCell>
        <mxCell id="O255DUQ4rKs0uwlkFZ7V-15" value="Solicita todas noticias ordernadas em data recente" style="edgeLabel;html=1;align=center;verticalAlign=middle;resizable=0;points=[];" vertex="1" connectable="0" parent="O255DUQ4rKs0uwlkFZ7V-13">
          <mxGeometry x="0.0154" y="-3" relative="1" as="geometry">
            <mxPoint y="-3" as="offset" />
          </mxGeometry>
        </mxCell>
        <mxCell id="O255DUQ4rKs0uwlkFZ7V-20" style="edgeStyle=orthogonalEdgeStyle;rounded=0;orthogonalLoop=1;jettySize=auto;html=1;" edge="1" parent="1" source="O255DUQ4rKs0uwlkFZ7V-19" target="O255DUQ4rKs0uwlkFZ7V-23">
          <mxGeometry relative="1" as="geometry" />
        </mxCell>
        <mxCell id="O255DUQ4rKs0uwlkFZ7V-26" value="Solicita as noticias de acordo com o endpoint" style="edgeLabel;html=1;align=center;verticalAlign=middle;resizable=0;points=[];" vertex="1" connectable="0" parent="O255DUQ4rKs0uwlkFZ7V-20">
          <mxGeometry x="-0.0286" y="-1" relative="1" as="geometry">
            <mxPoint x="6" as="offset" />
          </mxGeometry>
        </mxCell>
        <mxCell id="O255DUQ4rKs0uwlkFZ7V-19" value="API Externa&lt;br&gt;" style="shape=umlActor;verticalLabelPosition=bottom;verticalAlign=top;html=1;outlineConnect=0;" vertex="1" parent="1">
          <mxGeometry x="250" y="180" width="30" height="60" as="geometry" />
        </mxCell>
        <mxCell id="O255DUQ4rKs0uwlkFZ7V-23" value="API noticias&amp;nbsp;" style="whiteSpace=wrap;html=1;" vertex="1" parent="1">
          <mxGeometry x="205" y="350" width="120" height="60" as="geometry" />
        </mxCell>
        <mxCell id="O255DUQ4rKs0uwlkFZ7V-25" style="edgeStyle=orthogonalEdgeStyle;rounded=0;orthogonalLoop=1;jettySize=auto;html=1;entryX=1;entryY=0.5;entryDx=0;entryDy=0;entryPerimeter=0;" edge="1" parent="1" source="O255DUQ4rKs0uwlkFZ7V-23" target="O255DUQ4rKs0uwlkFZ7V-2">
          <mxGeometry relative="1" as="geometry" />
        </mxCell>
      </root>
    </mxGraphModel>
  </diagram>
</mxfile>
